<svg width="24" height="25" viewBox="0 0 24 25" fill="none" xmlns="http://www.w3.org/2000/svg">
<path d="M19.75 12.8945C19.75 13.3085 19.414 13.6445 19 13.6445H12.75V19.8945C12.75 20.3085 12.414 20.6445 12 20.6445C11.586 20.6445 11.25 20.3085 11.25 19.8945V13.6445H5C4.586 13.6445 4.25 13.3085 4.25 12.8945C4.25 12.4805 4.586 12.1445 5 12.1445H11.25V5.89453C11.25 5.48053 11.586 5.14453 12 5.14453C12.414 5.14453 12.75 5.48053 12.75 5.89453V12.1445H19C19.414 12.1445 19.75 12.4805 19.75 12.8945Z" fill="#121212"/>
</svg>
