<svg width="20" height="17" viewBox="0 0 20 17" fill="none" xmlns="http://www.w3.org/2000/svg">
<path d="M19.6999 1.50985C19.6699 1.36985 19.5999 0.93986 19.1999 0.60986C18.7699 0.25986 18.2299 0.239859 18.0699 0.249859C17.3299 0.259859 16.4899 0.539861 11.6099 2.57986C10.0099 3.24986 6.74993 4.65986 1.93993 6.76986C1.19993 7.06986 0.34993 7.50985 0.24993 8.28985C0.10993 9.41985 1.25993 9.77986 2.18993 10.0799L2.54992 10.1899C3.26992 10.4299 4.58993 10.8199 5.33993 10.8399C6.04993 10.8599 6.77992 10.5899 7.57992 10.0399C8.77992 9.22985 9.76994 8.55986 10.5999 7.99986C10.4699 8.11986 10.3499 8.23986 10.2499 8.32986C9.82993 8.72986 9.52993 9.00987 9.46993 9.06987C9.34993 9.19987 9.21994 9.31986 9.09994 9.43986C8.54994 9.96986 7.98993 10.5199 8.05993 11.3099C8.12993 12.0599 8.76992 12.5599 9.23992 12.8699C9.91992 13.3199 10.4699 13.6999 11.0099 14.0699C11.5899 14.4699 12.1799 14.8699 12.9399 15.3699C13.1299 15.4899 13.2999 15.6199 13.4799 15.7399C14.1699 16.2399 14.8899 16.7499 15.8199 16.7499C15.8999 16.7499 15.9699 16.7499 16.0499 16.7399C16.6899 16.6799 17.5199 16.2299 17.8499 14.4199C18.3799 11.5699 19.4799 5.10986 19.7399 2.37986C19.7699 2.06986 19.7399 1.69986 19.7099 1.51986L19.6999 1.50985ZM18.2399 2.22985C17.9899 4.88985 16.8799 11.4099 16.3699 14.1499C16.2099 15.0399 15.9499 15.2399 15.9099 15.2499C15.4599 15.2799 15.0199 14.9999 14.3499 14.5199C14.1599 14.3899 13.9699 14.2499 13.7699 14.1099C13.0199 13.6199 12.4399 13.2199 11.8699 12.8199C11.3199 12.4399 10.7699 12.0699 10.0799 11.6099C9.65992 11.3299 9.57993 11.1799 9.55993 11.1799C9.59993 11.0399 9.92992 10.7199 10.1499 10.5099C10.2799 10.3799 10.4199 10.2499 10.5599 10.0999C10.6199 10.0299 10.8999 9.77986 11.2799 9.41986C15.1999 5.75986 15.2399 5.58985 15.3099 5.25985C15.3699 4.96985 15.3299 4.52986 14.9999 4.24986C14.6199 3.89986 14.1399 3.99985 13.9899 4.03985C13.7699 4.08985 13.6399 4.11986 6.73992 8.79986C6.21992 9.15986 5.78993 9.35986 5.37993 9.32986C4.98993 9.32986 4.07992 9.09986 3.01992 8.74986L2.64992 8.62986C2.42992 8.55986 2.16992 8.47985 1.95992 8.39985C2.07992 8.32985 2.25994 8.24985 2.50994 8.14985C2.50994 8.14985 2.51993 8.14985 2.52993 8.14985C7.33993 6.04985 10.5799 4.63986 12.1799 3.96986C16.3599 2.21986 17.5799 1.76985 18.0899 1.75985C18.0899 1.75985 18.1999 1.76986 18.2099 1.76986C18.2299 1.87986 18.2399 2.09986 18.2299 2.23986L18.2399 2.22985Z" fill="white"/>
</svg>
