<svg width="18" height="20" viewBox="0 0 18 20" fill="none" xmlns="http://www.w3.org/2000/svg">
<path d="M17.5298 4.77977C17.3898 4.63977 17.1998 4.55977 16.9998 4.55977C16.2298 4.55977 15.3297 4.31977 14.7997 3.96977C13.9797 3.43977 13.4097 2.59977 13.2397 1.64977C13.1997 1.43976 13.1798 1.21977 13.1898 1.00977C13.1898 0.809766 13.1097 0.619767 12.9697 0.479767C12.8297 0.339767 12.6398 0.259766 12.4398 0.259766H9.34973C8.93973 0.259766 8.59973 0.599766 8.59973 1.00977V13.2998C8.59973 13.4898 8.56977 13.6798 8.50977 13.8598C8.35977 14.3398 8.02978 14.7298 7.58978 14.9598C7.14978 15.1898 6.63973 15.2398 6.15973 15.0898C5.67973 14.9398 5.28975 14.6098 5.05975 14.1698C4.82975 13.7298 4.77976 13.2198 4.93976 12.7398C5.08976 12.2598 5.41974 11.8698 5.85974 11.6398C6.29974 11.4098 6.80973 11.3598 7.28973 11.5098C7.51973 11.5798 7.76978 11.5398 7.95978 11.3998C8.14978 11.2598 8.26978 11.0298 8.26978 10.7998V7.63977C8.26978 7.26977 7.98975 6.94977 7.61975 6.89977C7.32975 6.85977 7.02974 6.83977 6.72974 6.83977C4.99974 6.83977 3.37973 7.50977 2.15973 8.72977C0.939729 9.94977 0.269766 11.5698 0.259766 13.2998C0.259766 16.8698 3.15973 19.7698 6.71973 19.7698C10.2797 19.7698 13.1898 16.8698 13.1898 13.3098V8.31978C14.3398 8.84978 15.6797 9.14977 16.9897 9.14977C17.4097 9.14977 17.7598 8.81977 17.7598 8.39977V5.32977C17.7598 5.12977 17.6797 4.93977 17.5397 4.79977L17.5298 4.77977ZM16.2498 7.59978C15.0098 7.46978 13.7598 7.03976 12.8698 6.39977C12.6398 6.23977 12.3398 6.20977 12.0898 6.33977C11.8398 6.46977 11.6797 6.72977 11.6797 7.00977V13.2898C11.6797 16.0298 9.44978 18.2498 6.70978 18.2498C3.96978 18.2498 1.74976 16.0198 1.74976 13.2798C1.74976 11.9498 2.26978 10.7098 3.20978 9.76978C4.14978 8.82978 5.38973 8.31978 6.71973 8.31978C6.71973 8.31978 6.73976 8.31978 6.74976 8.31978V9.90977C6.21976 9.88977 5.64978 10.0298 5.14978 10.2898C4.34978 10.7098 3.75975 11.4098 3.48975 12.2698C3.21975 13.1298 3.29973 14.0398 3.71973 14.8398C4.13973 15.6398 4.83977 16.2298 5.69977 16.4998C6.55977 16.7698 7.46978 16.6898 8.26978 16.2698C9.06978 15.8498 9.65975 15.1498 9.92975 14.2898C10.0297 13.9598 10.0898 13.6198 10.0898 13.2798V1.73978H11.7397C11.7397 1.79978 11.7598 1.84977 11.7698 1.90977C12.0198 3.26977 12.8397 4.46977 13.9897 5.21977C14.5797 5.60977 15.4198 5.88977 16.2598 5.99977V7.57977L16.2498 7.59978Z" fill="white"/>
</svg>
