<svg width="22" height="18" viewBox="0 0 22 18" fill="none" xmlns="http://www.w3.org/2000/svg">
<path d="M21.5802 2.42999C21.4102 2.21999 21.1502 2.13 20.9002 2.16C21.0002 1.96 21.0802 1.74999 21.1502 1.53999C21.2502 1.23999 21.1502 0.920001 20.9102 0.720001C20.6702 0.530001 20.3302 0.500004 20.0602 0.660004C19.4502 1.02 18.7702 1.29001 18.0702 1.46001C17.1902 0.690007 16.0302 0.25 14.8402 0.25C12.1702 0.25 9.99022 2.39999 9.99022 5.03999C9.99022 5.06999 9.99022 5.1 9.99022 5.13C7.24022 4.77 4.72022 3.37999 2.97022 1.25999C2.81022 1.06999 2.57022 0.970006 2.33022 0.990005C2.09022 1.01001 1.87022 1.15 1.74022 1.36C1.30022 2.1 1.08022 2.92 1.08022 3.78C1.08022 4.54 1.26021 5.26999 1.59021 5.92999C1.53021 5.94999 1.47021 5.97999 1.42021 6.00999C1.19021 6.13999 1.05022 6.41999 1.05022 6.67999C1.05022 8.06999 1.66022 9.35001 2.66022 10.24C2.50022 10.44 2.44022 10.71 2.52022 10.95C2.94022 12.25 3.90022 13.28 5.11022 13.83C3.86022 14.39 2.44022 14.61 1.07022 14.45C0.720224 14.41 0.390215 14.62 0.280215 14.95C0.160215 15.28 0.290213 15.65 0.590213 15.83C2.58021 17.09 4.90021 17.76 7.29021 17.76C15.0602 17.76 19.7002 11.54 19.7002 5.52V5.36C20.4302 4.79 21.0702 4.11 21.6102 3.34C21.8002 3.07 21.7902 2.7 21.5802 2.44V2.42999ZM18.5002 4.38C18.2902 4.53 18.1702 4.77999 18.1902 5.03999C18.2002 5.19999 18.2002 5.34999 18.2002 5.50999C18.2002 10.79 14.1202 16.25 7.29021 16.25C6.17021 16.25 5.07022 16.08 4.02022 15.76C5.29022 15.47 6.48022 14.91 7.53022 14.1C7.78022 13.91 7.88022 13.57 7.78022 13.27C7.68022 12.97 7.40022 12.76 7.08022 12.75C6.05022 12.73 5.10022 12.25 4.50022 11.49C4.76022 11.46 5.02022 11.42 5.27022 11.35C5.61022 11.26 5.84022 10.95 5.83022 10.6C5.83022 10.25 5.57021 9.95 5.23021 9.88C4.06021 9.65001 3.14022 8.83 2.75022 7.75C3.04022 7.81 3.33021 7.85 3.62021 7.86C4.00021 7.88 4.26022 7.66 4.36022 7.34C4.46022 7.02 4.34021 6.67 4.06021 6.48C3.13021 5.87 2.57022 4.85001 2.57022 3.74001C2.57022 3.52001 2.59022 3.3 2.63022 3.09C4.79022 5.22 7.70021 6.51 10.7902 6.67C11.0202 6.67 11.2502 6.59 11.4002 6.41C11.5502 6.23 11.6102 6 11.5602 5.77C11.5002 5.5 11.4802 5.24 11.4802 5C11.4802 3.19 12.9802 1.71001 14.8302 1.71001C15.7702 1.71001 16.6402 2.08 17.2802 2.75C17.4602 2.93 17.7102 3.02 17.9602 2.97C18.0102 2.97 18.0502 2.95 18.1002 2.94C17.8902 3.14 17.8202 3.44 17.9102 3.72C18.0102 4.03 18.3002 4.24001 18.6202 4.24001C18.6202 4.24001 18.5302 4.31 18.4802 4.34L18.5002 4.38Z" fill="white"/>
</svg>
