<svg width="22" height="16" viewBox="0 0 22 16" fill="none" xmlns="http://www.w3.org/2000/svg">
<path d="M21.31 2.99977C21.01 1.87977 20.13 0.999768 19.01 0.699768C17.4 0.269768 11.65 0.259766 11 0.259766C10.35 0.259766 4.59999 0.269768 2.98999 0.699768C1.86999 0.999768 0.990002 1.87977 0.690002 2.99977C0.250002 4.63977 0.25 7.87978 0.25 8.01978C0.25 8.15978 0.250002 11.3998 0.690002 13.0398C0.980002 14.1398 1.86999 15.0098 2.98999 15.3098C4.59999 15.7398 10.35 15.7498 11 15.7498C11.65 15.7498 17.4 15.7398 19.01 15.3098C20.13 15.0098 21.02 14.1398 21.31 13.0398C21.75 11.3998 21.75 8.15978 21.75 8.01978C21.75 7.87978 21.75 4.63977 21.31 2.99977ZM19.86 12.6498C19.7 13.2398 19.24 13.6998 18.62 13.8598C17.42 14.1798 12.71 14.2498 11 14.2498C9.29 14.2498 4.58 14.1798 3.38 13.8598C2.76 13.6898 2.30001 13.2398 2.14001 12.6498C1.75001 11.1998 1.75 8.04978 1.75 8.01978C1.75 7.98978 1.75001 4.83977 2.14001 3.38977C2.30001 2.78977 2.78 2.30977 3.38 2.14977C4.58 1.82977 9.29 1.75977 11 1.75977C12.71 1.75977 17.42 1.82977 18.62 2.14977C19.22 2.30977 19.7 2.78977 19.86 3.38977C20.25 4.83977 20.25 7.98978 20.25 8.01978C20.25 8.04978 20.25 11.1998 19.86 12.6498ZM9 4.99977L14 7.99977L9 10.9998V4.99977Z" fill="white"/>
</svg>
